<?xml version="1.0" encoding="UTF-8"?>
<svg width="229px" height="229px" viewBox="0 0 229 229" version="1.1" xmlns="http://www.w3.org/2000/svg" xmlns:xlink="http://www.w3.org/1999/xlink">
    <title>Logos/dot</title>
    <g id="Logos/dot" stroke="none" stroke-width="1" fill="none" fill-rule="evenodd">
        <g id="Screenshot-2020-06-06-at-11.59.47" transform="translate(48.000000, 49.000000)" fill="#323045" fill-rule="nonzero">
            <path d="M71.5,64.9 C71.5,67.5 69.6,69.5 67,69.5 C64.4,69.5 62.5,67.5 62.5,65 C62.5,62.5 64.4,60.6 66.8,60.5 C69.4,60.4 71.4,62.4 71.5,64.9 Z" id="Path"></path>
            <path d="M24.3,26.1 C24.1,27.6 23.3,28.6 21.7,28.5 C20.1,28.4 19.3,27.4 19.4,25.9 C19.5,24.5 20.4,23.6 21.8,23.6 C23.3,23.6 24.1,24.6 24.3,26.1 Z" id="Path"></path>
            <path d="M63,125 C62.7,125.4 62.5,125.8 62.1,126.1 C61.3,126.9 60.3,127.3 59.2,126.7 C58.1,126.1 57.7,125.2 57.9,124 C58.1,122.8 59,122.1 60.2,122.1 C61.4,122.1 62.3,122.7 62.6,123.9 C62.7,124.2 62.9,124.6 63,125 L63,125 Z" id="Path"></path>
            <path d="M36.8,119.2 C35.3,119 34.4,118.2 34.5,116.6 C34.6,115.1 35.5,114.4 36.9,114.3 C38.6,114.3 39.3,115.4 39.3,116.8 C39.3,118.3 38.4,119.1 36.8,119.2 Z" id="Path"></path>
            <path d="M89.4,8.5 C89.2,9.9 88.4,10.9 87,10.9 C85.5,10.9 84.5,10 84.6,8.4 C84.7,6.9 85.6,6.1 87,6.1 C88.5,6 89.1,7.1 89.4,8.5 Z" id="Path"></path>
            <path d="M6.8,64.6 C8.3,64.7 9.2,65.5 9.3,66.9 C9.4,68.5 8.4,69.4 6.9,69.4 C5.5,69.4 4.6,68.5 4.6,67 C4.6,65.6 5.5,64.8 6.8,64.6 Z" id="Path"></path>
            <path d="M116.7,35 C115.2,34.8 114.3,34.1 114.3,32.7 C114.3,31.3 115.1,30.3 116.5,30.3 C117.9,30.3 118.8,31.1 118.9,32.5 C119,34 117.9,34.7 116.7,35 Z" id="Path"></path>
            <path d="M121.1,92 C119.7,91.8 118.7,91.1 118.7,89.6 C118.7,88.2 119.5,87.2 121,87.2 C122.5,87.2 123.4,88 123.4,89.5 C123.4,91 122.4,91.7 121.1,92 Z" id="Path"></path>
            <path d="M20.3,98.1 C20.1,99.5 19.2,100.5 17.8,100.4 C16.5,100.3 15.5,99.4 15.6,97.9 C15.7,96.5 16.7,95.6 18.1,95.7 C19.4,95.7 20.2,96.7 20.3,98.1 Z" id="Path"></path>
            <path d="M45.4,119.2 C45.1,120.5 44.4,121.5 42.9,121.5 C41.4,121.5 40.6,120.5 40.6,119.1 C40.6,117.7 41.6,116.8 43,116.9 C44.5,116.8 45.2,117.8 45.4,119.2 Z" id="Path"></path>
            <path d="M65.6,6.3 C65.5,7.6 64.5,8.3 63.1,8.1 C61.7,8 61,7.1 61,5.8 C61,4.3 62,3.5 63.4,3.5 C64.8,3.7 65.6,4.6 65.6,6.3 Z" id="Path"></path>
            <path d="M54.1,121.5 C55.6,121.6 56.5,122.3 56.5,123.8 C56.6,125.3 55.7,126.2 54.3,126.2 C52.9,126.3 51.9,125.5 51.9,124 C51.9,122.4 52.7,121.7 54.1,121.5 Z" id="Path"></path>
            <path d="M119.8,92.4 C121.2,92.5 122,93.2 122.1,94.6 C122.1,96 121.4,96.9 120.1,96.9 C118.6,97 117.7,96 117.7,94.6 C117.6,93.3 118.5,92.6 119.8,92.4 Z" id="Path"></path>
            <path d="M94.9,11.9 C94.6,13.4 93.9,14.2 92.4,14.1 C91,14 90.4,13.1 90.4,11.8 C90.4,10.5 91.3,9.7 92.6,9.6 C94,9.6 94.7,10.6 94.9,11.9 Z" id="Path"></path>
            <path d="M121,44.4 C119.7,44.1 118.8,43.5 118.9,42.1 C119,40.7 119.8,40 121.1,40 C122.5,40 123.3,40.9 123.2,42.2 C123.3,43.5 122.4,44.3 121,44.4 Z" id="Path"></path>
            <path d="M102,13.3 C103.4,13.4 104.3,14.2 104.3,15.5 C104.3,17 103.4,17.9 101.9,17.8 C100.6,17.7 99.8,16.8 99.8,15.5 C99.9,14.1 100.8,13.5 102,13.3 Z" id="Path"></path>
            <path d="M26.5,108.4 C26.4,109.6 25.7,110.4 24.3,110.5 C22.9,110.5 22.1,109.7 22.1,108.4 C22.1,107.1 22.9,106.2 24.2,106.2 C25.5,106.2 26.4,106.9 26.5,108.4 Z" id="Path"></path>
            <path d="M30.7,111.8 C30.6,113.2 29.8,114 28.4,114 C27,114 26.2,113.1 26.2,111.8 C26.2,110.3 27,109.4 28.5,109.5 C30,109.6 30.7,110.5 30.7,111.8 Z" id="Path"></path>
            <path d="M10.9,43 C9.6,42.7 8.9,42 8.9,40.6 C9,39.3 9.8,38.6 11,38.6 C12.3,38.6 13.2,39.5 13.1,40.8 C13.2,42.2 12.3,42.9 10.9,43 Z" id="Path"></path>
            <path d="M63,125 C63.3,124.8 63.7,124.5 64,124.4 C65.4,123.7 66.5,124.1 67,125.5 C67.4,126.7 67,127.9 65.5,128.1 C64,128.4 63.1,127.7 63,126.1 C63,125.8 63,125.4 63,125 C63,125 63,125 63,125 Z" id="Path"></path>
            <path d="M126.5,74.4 C126.5,76.1 125.7,76.7 124.5,76.8 C123.2,76.9 122.4,76.1 122.4,74.8 C122.4,73.4 123.1,72.6 124.5,72.6 C125.8,72.6 126.5,73.4 126.5,74.4 Z" id="Path"></path>
            <path d="M76.6,6.7 C75.4,6.6 74.6,5.9 74.6,4.7 C74.6,3.4 75.4,2.5 76.8,2.6 C78.1,2.6 78.8,3.5 78.8,4.7 C78.8,5.9 78,6.6 76.6,6.7 Z" id="Path"></path>
            <path d="M125.1,64.8 C124,64.6 123.1,64 123.1,62.7 C123.1,61.5 123.8,60.6 125.1,60.6 C126.4,60.6 127.3,61.4 127.3,62.7 C127.2,64 126.4,64.7 125.1,64.8 Z" id="Path"></path>
            <path d="M12.7,79.7 C12.6,81 12.1,81.9 10.8,82 C9.4,82.1 8.6,81.3 8.6,79.9 C8.6,78.6 9.3,77.9 10.6,77.9 C11.8,77.8 12.5,78.6 12.7,79.7 Z" id="Path"></path>
            <path d="M11.5,86.1 C11.4,87.4 10.8,88.2 9.5,88.2 C8.3,88.2 7.5,87.6 7.4,86.3 C7.3,84.9 8.1,84.2 9.3,84.2 C10.5,84.1 11.3,84.9 11.5,86.1 Z" id="Path"></path>
            <path d="M99.2,119.4 C97.9,119.2 97.1,118.5 97.1,117.3 C97.1,116.1 97.9,115.3 99.2,115.4 C100.4,115.5 101.2,116.2 101.1,117.5 C101.1,118.7 100.3,119.2 99.2,119.4 Z" id="Path"></path>
            <path d="M14.6,87.6 C15.8,87.8 16.6,88.4 16.6,89.7 C16.6,91 15.8,91.6 14.5,91.6 C13.3,91.6 12.7,90.8 12.6,89.7 C12.5,88.4 13.4,87.8 14.6,87.6 Z" id="Path"></path>
            <path d="M110.9,110 C110.7,111.2 110.1,112 108.8,112 C107.6,112 107,111.3 106.9,110.1 C106.9,108.8 107.5,108 108.8,108 C110.1,108 110.7,108.8 110.9,110 Z" id="Path"></path>
            <path d="M51.3,11.3 C50.1,11.1 49.4,10.4 49.5,9.1 C49.6,7.9 50.4,7.4 51.5,7.4 C52.7,7.5 53.4,8.2 53.3,9.3 C53.3,10.5 52.5,11.2 51.3,11.3 Z" id="Path"></path>
            <path d="M46.4,12.1 C46.2,13.2 45.7,14 44.5,14 C43.3,14 42.6,13.3 42.5,12.2 C42.4,11 43.2,10.3 44.3,10.2 C45.6,10.2 46.2,10.9 46.4,12.1 Z" id="Path"></path>
            <path d="M18.7,35.5 C17.7,35.2 16.9,34.7 17,33.4 C17.1,32.2 17.9,31.6 19,31.6 C20.1,31.6 20.8,32.4 20.8,33.6 C20.7,34.8 19.9,35.4 18.7,35.5 Z" id="Path"></path>
            <path d="M7.7,72.4 C7.5,73.7 6.7,74.4 5.6,74.3 C4.5,74.2 3.8,73.4 3.9,72.3 C4,71 4.8,70.4 6,70.5 C7.2,70.6 7.6,71.4 7.7,72.4 Z" id="Path"></path>
            <path d="M79.8,10.8 C78.7,10.6 78,10 78,8.8 C78.1,7.6 78.8,7 80,7 C81.2,7 81.9,7.8 81.8,8.9 C81.7,10.1 80.9,10.7 79.8,10.8 Z" id="Path"></path>
            <path d="M105.5,109.4 C105.3,110.5 104.7,111.2 103.5,111.1 C102.3,111 101.7,110.3 101.7,109.1 C101.8,107.9 102.5,107.3 103.7,107.3 C104.9,107.5 105.5,108.2 105.5,109.4 Z" id="Path"></path>
            <path d="M122.4,69 C122.5,68.2 123.1,67.5 124.3,67.5 C125.5,67.6 126,68.4 126,69.5 C126,70.6 125.2,71.2 124.2,71.2 C123.1,71.2 122.3,70.5 122.4,69 Z" id="Path"></path>
            <path d="M95,115.8 C94.8,117 94.1,117.6 93,117.5 C91.9,117.4 91.4,116.7 91.5,115.6 C91.6,114.4 92.3,113.8 93.5,113.9 C94.5,114.1 95,114.8 95,115.8 Z" id="Path"></path>
            <path d="M116,105.4 C115.8,106.5 115.2,107.2 114,107.1 C112.8,107 112.3,106.2 112.4,105.1 C112.5,104 113.2,103.5 114.3,103.5 C115.4,103.4 116,104.1 116,105.4 Z" id="Path"></path>
            <path d="M35.2,18.5 C35.1,19.8 34.4,20.5 33.2,20.4 C32.2,20.4 31.5,19.7 31.5,18.6 C31.4,17.4 32.2,16.7 33.3,16.7 C34.5,16.6 35.1,17.4 35.2,18.5 Z" id="Path"></path>
            <path d="M78,125.9 C78,127.4 77.3,128.1 76.2,128.1 C75.2,128.1 74.4,127.5 74.4,126.5 C74.3,125.4 74.8,124.6 76.1,124.5 C77.3,124.4 77.8,125.1 78,125.9 Z" id="Path"></path>
            <path d="M123.5,48.3 C123.4,49.5 122.8,50.1 121.6,50.1 C120.5,50.1 119.9,49.4 120,48.4 C120,47.4 120.6,46.7 121.6,46.6 C122.7,46.5 123.4,47.1 123.5,48.3 Z" id="Path"></path>
            <path d="M13,48.1 C11.6,48.1 10.9,47.5 10.8,46.3 C10.8,45.1 11.4,44.4 12.6,44.4 C13.7,44.4 14.5,44.9 14.5,46.2 C14.6,47.4 13.8,47.9 13,48.1 Z" id="Path"></path>
            <path d="M72.6,127.2 C72.5,128.3 72,129 70.9,129 C69.8,129 69.1,128.4 69.1,127.3 C69.1,126.1 69.8,125.4 71,125.4 C72,125.5 72.5,126.3 72.6,127.2 Z" id="Path"></path>
            <path d="M115.4,97.9 C115.2,98.9 114.7,99.6 113.6,99.6 C112.5,99.6 111.8,99.1 111.8,98 C111.8,96.8 112.4,96.1 113.6,96.1 C114.6,96.2 115.2,96.9 115.4,97.9 Z" id="Path"></path>
            <path d="M57.4,3.3 C57.3,4.3 56.8,5 55.7,5 C54.6,5 54,4.4 54,3.4 C54,2.3 54.7,1.7 55.7,1.7 C56.7,1.6 57.3,2.3 57.4,3.3 Z" id="Path"></path>
            <path d="M129.8,63.1 C130.8,63.3 131.5,63.7 131.5,64.8 C131.5,65.7 131,66.4 130,66.5 C128.9,66.6 128.2,66 128.1,64.9 C128.1,63.9 128.8,63.3 129.8,63.1 Z" id="Path"></path>
            <path d="M33.5,116.9 C33.4,118 32.8,118.7 31.8,118.7 C30.8,118.7 30.1,118 30.1,117 C30.1,116.1 30.7,115.5 31.7,115.5 C32.8,115.4 33.4,115.9 33.5,116.9 Z" id="Path"></path>
            <path d="M106.2,115.1 C106,116.2 105.4,116.9 104.4,116.9 C103.4,116.8 102.7,116.1 102.8,115.1 C102.9,114.1 103.5,113.4 104.6,113.5 C105.7,113.4 106.1,114.1 106.2,115.1 Z" id="Path"></path>
            <path d="M45.8,122.5 C46.8,122.6 47.5,123.2 47.5,124.2 C47.5,125.1 46.9,125.8 46,125.9 C44.9,126 44.3,125.3 44.2,124.4 C44.1,123.3 44.8,122.7 45.8,122.5 Z" id="Path"></path>
            <path d="M69.4,7 C70.6,6.9 71.1,7.6 71.2,8.4 C71.3,9.5 70.7,10.1 69.6,10.2 C68.7,10.3 68,9.7 67.9,8.8 C67.9,7.7 68.6,7.2 69.4,7 Z" id="Path"></path>
            <path d="M98.5,113.8 C97.4,113.7 96.7,113.2 96.7,112.1 C96.7,111.2 97.2,110.5 98.2,110.4 C99.3,110.3 99.9,110.8 100.1,111.9 C100.1,113.1 99.4,113.6 98.5,113.8 Z" id="Path"></path>
            <path d="M12.8,34.7 C11.8,34.6 11.1,34.1 11.1,33 C11.1,32 11.7,31.4 12.6,31.4 C13.7,31.3 14.4,32 14.4,33 C14.4,34 13.8,34.6 12.8,34.7 Z" id="Path"></path>
            <path d="M49,5.1 C49,6.4 48.3,7 47.3,7 C46.4,7.1 45.7,6.4 45.6,5.5 C45.5,4.4 46.1,3.8 47.1,3.6 C48.3,3.5 48.7,4.3 49,5.1 Z" id="Path"></path>
            <path d="M105.1,21.9 C106.2,21.9 106.8,22.5 106.9,23.4 C106.9,24.4 106.4,25.1 105.2,25.1 C104.2,25.1 103.6,24.5 103.6,23.6 C103.6,22.6 104.2,22 105.1,21.9 Z" id="Path"></path>
            <path d="M111,31.4 C110,31.2 109.3,30.6 109.4,29.5 C109.5,28.5 110.1,28 111,28 C112.1,28.1 112.6,28.7 112.5,29.8 C112.5,30.9 111.8,31.2 111,31.4 Z" id="Path"></path>
            <path d="M107.2,102.9 C108.2,103 108.9,103.5 108.9,104.6 C108.9,105.5 108.3,106.1 107.3,106.1 C106.2,106.1 105.6,105.5 105.6,104.5 C105.6,103.6 106.2,103 107.2,102.9 Z" id="Path"></path>
            <path d="M12.2,49.9 C13.2,50 13.8,50.6 13.7,51.6 C13.7,52.5 13.1,53.2 12.1,53.1 C11,53.1 10.4,52.4 10.5,51.3 C10.6,50.2 11.3,49.9 12.2,49.9 Z" id="Path"></path>
            <path d="M71,121.4 C71,122.6 70.4,123.1 69.3,123.1 C68.4,123.1 67.7,122.5 67.7,121.6 C67.7,120.6 68.2,119.9 69.4,119.9 C70.4,119.9 71,120.5 71,121.4 Z" id="Path"></path>
            <path d="M28.7,16.7 C28.6,17.4 28.2,18 27.2,18 C26.1,18 25.5,17.5 25.5,16.4 C25.5,15.3 26.2,14.8 27.2,14.8 C28.1,14.9 28.7,15.5 28.7,16.7 Z" id="Path"></path>
            <path d="M85.5,119.9 C84.4,119.7 83.7,119.2 83.8,118.2 C83.8,117.2 84.5,116.5 85.6,116.6 C86.5,116.7 87.1,117.3 87,118.3 C86.9,119.4 86.2,119.7 85.5,119.9 Z" id="Path"></path>
            <path d="M19.2,103.6 C19.1,104.6 18.6,105.1 17.6,105.2 C16.5,105.2 15.9,104.6 15.9,103.5 C16,102.4 16.7,101.9 17.8,102 C18.7,102 19.2,102.6 19.2,103.6 Z" id="Path"></path>
            <path d="M11.1,60.6 C10.2,60.5 9.5,60.1 9.5,59.1 C9.5,58.1 10.1,57.5 11,57.5 C12,57.5 12.5,58 12.6,59 C12.6,60 12.1,60.6 11.1,60.6 Z" id="Path"></path>
            <path d="M122.5,80.7 C122.4,81.8 122,82.4 121,82.5 C120,82.6 119.5,82 119.4,81 C119.3,80 119.8,79.4 120.8,79.4 C121.8,79.4 122.3,79.9 122.5,80.7 Z" id="Path"></path>
            <path d="M98,17.1 C98,18.2 97.4,18.7 96.5,18.7 C95.6,18.7 95,18.2 95,17.2 C95,16.2 95.6,15.7 96.5,15.7 C97.4,15.6 97.9,16.2 98,17.1 Z" id="Path"></path>
            <path d="M25.9,101.1 C26.7,101.3 27.3,101.7 27.3,102.6 C27.3,103.6 26.7,104.1 25.7,104 C24.8,103.9 24.4,103.3 24.5,102.4 C24.5,101.6 25.1,101.2 25.9,101.1 Z" id="Path"></path>
            <path d="M79.7,118 C80.7,118 81.3,118.6 81.3,119.5 C81.3,120.4 80.7,121 79.7,121 C78.8,121 78.4,120.4 78.3,119.6 C78.3,118.7 78.7,118 79.7,118 Z" id="Path"></path>
            <path d="M41.5,7 C41.4,7.8 41,8.4 40.1,8.4 C39.1,8.4 38.5,7.8 38.6,6.9 C38.6,6.1 39.2,5.5 40.1,5.6 C40.9,5.6 41.4,6.2 41.5,7 Z" id="Path"></path>
            <path d="M101.9,10.5 C101.7,11.3 101.3,11.9 100.4,11.9 C99.6,11.9 99,11.3 99,10.5 C99,9.7 99.6,9.1 100.4,9.2 C101.4,9.1 101.8,9.6 101.9,10.5 Z" id="Path"></path>
            <path d="M118.7,26 C118.6,26.9 118.2,27.5 117.2,27.5 C116.3,27.5 115.9,26.9 115.8,26.1 C115.8,25.1 116.3,24.6 117.3,24.6 C118.2,24.5 118.6,25.2 118.7,26 Z" id="Path"></path>
            <path d="M29,26 C28.9,26.9 28.3,27.4 27.5,27.3 C26.7,27.3 26.1,26.7 26.2,25.8 C26.3,25 26.8,24.4 27.7,24.5 C28.5,24.6 29,25.2 29,26 Z" id="Path"></path>
            <path d="M84.3,127.1 C84.1,127.9 83.7,128.5 82.8,128.4 C82,128.3 81.5,127.8 81.5,126.9 C81.6,126.1 82.1,125.7 82.8,125.7 C83.7,125.7 84.2,126.2 84.3,127.1 Z" id="Path"></path>
            <path d="M130.5,55.1 C131.4,55.3 132.1,55.8 132,56.7 C131.9,57.5 131.3,58.1 130.5,58 C129.7,57.9 129.3,57.3 129.3,56.6 C129.1,55.7 129.8,55.3 130.5,55.1 Z" id="Path"></path>
            <path d="M114.5,20.7 C114.5,21.6 114,22.1 113.1,22.2 C112.2,22.2 111.6,21.7 111.6,20.9 C111.6,20.1 112.1,19.5 113,19.5 C113.8,19.4 114.4,19.8 114.5,20.7 Z" id="Path"></path>
            <path d="M92.6,8.1 C91.7,8 91.3,7.5 91.3,6.7 C91.3,5.7 91.9,5.2 92.8,5.3 C93.6,5.4 94.1,6 94,6.8 C94,7.6 93.5,8 92.6,8.1 Z" id="Path"></path>
            <path d="M41,16.9 C40.9,17.8 40.4,18.1 39.5,18.1 C38.7,18.1 38.3,17.6 38.3,16.9 C38.3,16.1 38.7,15.5 39.6,15.5 C40.5,15.5 41,16 41,16.9 Z" id="Path"></path>
            <path d="M53,117.3 C53.8,117.5 54.3,117.9 54.1,118.8 C54,119.5 53.6,120 52.8,120 C51.9,120 51.5,119.5 51.5,118.6 C51.5,117.6 52.2,117.3 53,117.3 Z" id="Path"></path>
            <path d="M12.8,73.7 C13.5,73.9 14,74.1 14.1,75 C14.1,75.9 13.5,76.4 12.8,76.4 C12,76.4 11.5,75.9 11.5,74.9 C11.6,74.1 12.1,73.8 12.8,73.7 Z" id="Path"></path>
            <path d="M128.2,89 C128.1,89.7 127.7,90.1 126.9,90.1 C126.1,90.1 125.7,89.6 125.7,88.9 C125.7,88.2 126.2,87.7 127,87.7 C127.7,87.7 128.2,88.2 128.2,89 Z" id="Path"></path>
            <path d="M82.2,12.5 C82.3,11.8 82.8,11.3 83.5,11.4 C84.3,11.4 84.7,11.9 84.7,12.7 C84.6,13.5 84.2,14 83.4,13.9 C82.7,13.8 82.3,13.3 82.2,12.5 Z" id="Path"></path>
            <path d="M91.7,123.5 C92.4,123.7 93,124.1 92.9,124.8 C92.8,125.6 92.3,126 91.5,125.9 C90.8,125.8 90.5,125.4 90.5,124.7 C90.5,124 91,123.6 91.7,123.5 Z" id="Path"></path>
            <path d="M16.6,83.3 C16.5,84.1 16,84.5 15.2,84.4 C14.5,84.3 14.1,83.8 14.1,83.2 C14.1,82.5 14.6,82 15.4,82 C16.3,82 16.6,82.6 16.6,83.3 Z" id="Path"></path>
            <path d="M98,122.2 C97.9,123 97.5,123.4 96.7,123.4 C95.9,123.4 95.5,122.9 95.5,122.2 C95.5,121.4 96,121 96.7,121 C97.5,121 97.9,121.5 98,122.2 Z" id="Path"></path>
            <path d="M130.9,81.1 C130.8,81.9 130.4,82.4 129.6,82.4 C128.9,82.4 128.4,81.9 128.4,81.1 C128.4,80.4 128.8,80 129.5,80 C130.4,79.9 130.7,80.4 130.9,81.1 Z" id="Path"></path>
            <path d="M131.1,72.1 C130.4,72 129.9,71.5 130,70.8 C130.1,70.1 130.6,69.6 131.4,69.7 C132.2,69.8 132.6,70.2 132.5,71 C132.4,71.7 131.9,72 131.1,72.1 Z" id="Path"></path>
            <path d="M120.5,54.6 C119.7,54.5 119.2,54.1 119.3,53.3 C119.4,52.6 119.8,52.2 120.5,52.3 C121.3,52.3 121.7,52.8 121.6,53.6 C121.5,54.3 121.1,54.6 120.5,54.6 Z" id="Path"></path>
            <path d="M66,10.8 C65.8,11.5 65.4,12 64.8,12 C64,12 63.6,11.4 63.7,10.6 C63.8,9.9 64.3,9.6 64.9,9.7 C65.6,9.7 65.9,10.2 66,10.8 Z" id="Path"></path>
            <path d="M32.7,10.8 C32.6,11.4 32.4,11.9 31.7,12 C30.9,12.1 30.4,11.6 30.4,10.8 C30.4,10.1 30.9,9.5 31.7,9.6 C32.3,9.7 32.6,10.2 32.7,10.8 Z" id="Path"></path>
            <path d="M8.5,94.2 C7.7,94.1 7.3,93.6 7.4,92.9 C7.5,92.2 7.9,91.9 8.5,91.9 C9.2,91.9 9.5,92.3 9.6,93 C9.7,93.8 9.2,94.2 8.5,94.2 Z" id="Path"></path>
            <path d="M131.5,49.6 C131.6,50.4 131.1,50.7 130.5,50.9 C129.8,51.1 129.4,50.6 129.2,50 C129,49.2 129.5,48.7 130.2,48.6 C130.9,48.5 131.3,49 131.5,49.6 Z" id="Path"></path>
            <path d="M126.8,39.8 C126.1,39.7 125.7,39.3 125.7,38.7 C125.7,38 126.1,37.6 126.8,37.6 C127.4,37.6 127.9,38 127.9,38.7 C127.9,39.3 127.4,39.7 126.8,39.8 Z" id="Path"></path>
            <path d="M35.5,108.3 C36.3,108.3 36.7,108.7 36.7,109.3 C36.7,109.9 36.4,110.4 35.7,110.4 C34.9,110.4 34.5,110.1 34.5,109.3 C34.5,108.6 35,108.4 35.5,108.3 Z" id="Path"></path>
            <path d="M4,53.6 C4.1,54.9 3.8,55.3 3.1,55.5 C2.4,55.6 2,55.2 1.9,54.6 C1.8,53.8 2.2,53.3 2.9,53.2 C3.6,53.1 4,53.5 4,53.6 Z" id="Path"></path>
            <path d="M2.5,80.6 C2.6,80 3,79.6 3.7,79.6 C4.3,79.6 4.7,80.1 4.7,80.7 C4.6,81.3 4.3,81.8 3.6,81.7 C3,81.7 2.5,81.3 2.5,80.6 Z" id="Path"></path>
            <path d="M124.9,33 C124.8,33.6 124.4,34.1 123.7,34.1 C123,34.1 122.6,33.7 122.6,33 C122.6,32.4 123,31.9 123.7,32 C124.5,32 124.8,32.4 124.9,33 Z" id="Path"></path>
            <path d="M84.4,2 C84.4,2.7 84,3 83.3,3.1 C82.6,3.1 82.2,2.7 82.2,2.1 C82.2,1.4 82.5,1 83.3,1 C84,0.9 84.3,1.3 84.4,2 Z" id="Path"></path>
            <path d="M121,58.5 C121.7,58.5 122,58.9 122.1,59.5 C122.1,60.1 121.8,60.5 121.3,60.5 C120.7,60.6 120.1,60.3 120.1,59.6 C119.9,59 120.3,58.6 121,58.5 Z" id="Path"></path>
            <path d="M2.5,49.1 C2.6,48.5 2.9,48 3.6,48 C4.2,48 4.5,48.4 4.5,48.9 C4.5,49.5 4.3,49.9 3.7,50 C3.1,50.1 2.7,49.8 2.5,49.1 Z" id="Path"></path>
            <path d="M2.4,65.5 C2.2,66 1.9,66.4 1.4,66.4 C0.7,66.3 0.4,65.8 0.5,65.2 C0.6,64.6 1.1,64.4 1.6,64.5 C2.2,64.6 2.4,65 2.4,65.5 Z" id="Path"></path>
            <path d="M5.5,41.4 C6.1,41.5 6.4,41.8 6.4,42.4 C6.3,43.1 5.9,43.5 5.2,43.3 C4.7,43.2 4.4,42.7 4.5,42.2 C4.5,41.6 4.9,41.4 5.5,41.4 Z" id="Path"></path>
            <path d="M54.1,130.4 C53.4,130.4 53,130.1 52.9,129.6 C52.8,129.1 53,128.6 53.6,128.5 C54.3,128.4 54.7,128.7 54.8,129.4 C54.9,129.9 54.4,130.1 54.1,130.4 Z" id="Path"></path>
            <path d="M122.7,101.3 C122,101.1 121.6,100.8 121.6,100.2 C121.7,99.7 122,99.3 122.6,99.4 C123.2,99.4 123.5,99.8 123.5,100.4 C123.5,101.1 122.9,101.1 122.7,101.3 Z" id="Path"></path>
            <path d="M59.1,130 C59.6,130.1 60,130.4 59.9,131 C59.8,131.4 59.5,131.7 59,131.7 C58.4,131.7 58.1,131.3 58.2,130.7 C58.3,130.4 58.6,130 59.1,130 Z" id="Path"></path>
            <path d="M59.7,119.2 C59.1,119.1 58.8,118.8 58.9,118.2 C59,117.6 59.3,117.3 59.9,117.4 C60.5,117.5 60.7,117.8 60.7,118.4 C60.6,119 60.2,119.2 59.7,119.2 Z" id="Path"></path>
            <path d="M120.3,65.7 C119.9,65.6 119.5,65.4 119.5,64.9 C119.5,64.3 119.8,64 120.4,64 C120.9,64 121.1,64.3 121.2,64.8 C121.2,65.4 120.9,65.7 120.3,65.7 Z" id="Path"></path>
            <path d="M130.2,43.8 C130.1,44.4 129.9,44.7 129.3,44.7 C128.7,44.7 128.4,44.3 128.5,43.7 C128.5,43.2 128.8,43 129.3,43 C129.8,42.9 130.1,43.2 130.2,43.8 Z" id="Path"></path>
            <path d="M1.7,60 C0.8,60 0.5,59.7 0.5,59.3 C0.4,58.7 0.8,58.4 1.4,58.4 C1.9,58.4 2.2,58.7 2.2,59.2 C2.2,59.7 1.8,60 1.7,60 Z" id="Path"></path>
            <path d="M117.1,44.2 C117.1,44.7 116.8,45 116.4,45 C115.8,45 115.5,44.7 115.5,44.1 C115.5,43.6 115.8,43.3 116.2,43.3 C116.8,43.3 117.1,43.6 117.1,44.2 Z" id="Path"></path>
            <path d="M25,96.3 C25.5,96.2 25.7,96.5 25.8,97 C25.9,97.5 25.5,97.8 25.1,97.8 C24.9,97.8 24.5,97.5 24.5,97.2 C24.3,96.8 24.5,96.4 25,96.3 Z" id="Path"></path>
            <path d="M12.8,26.2 C13.2,26.3 13.6,26.5 13.6,27 C13.6,27.6 13.3,27.9 12.7,27.9 C12.2,27.9 12,27.5 12.1,27 C12,26.5 12.4,26.3 12.8,26.2 Z" id="Path"></path>
            <path d="M36.3,123.6 C36.2,124 36,124.4 35.5,124.4 C35,124.4 34.8,124 34.8,123.5 C34.8,123.1 35.1,122.9 35.4,122.9 C35.9,122.8 36.1,123.2 36.3,123.6 Z" id="Path"></path>
            <path d="M48.7,114.3 C48.5,114.5 48.3,114.8 48,114.8 C47.5,114.8 47.3,114.4 47.4,114 C47.4,113.6 47.7,113.5 48.1,113.5 C48.6,113.5 48.6,113.8 48.7,114.3 Z" id="Path"></path>
            <path d="M57.5,13.4 C57.3,13.9 57.1,14.1 56.7,14 C56.3,13.9 56,13.6 56.2,13.1 C56.3,12.8 56.6,12.6 56.9,12.6 C57.5,12.7 57.5,13.1 57.5,13.4 Z" id="Path"></path>
            <path d="M110.8,13.9 C110.6,14.4 110.3,14.6 109.9,14.5 C109.5,14.4 109.5,14.1 109.5,13.8 C109.5,13.4 109.8,13.2 110.1,13.2 C110.5,13.2 110.8,13.5 110.8,13.9 Z" id="Path"></path>
            <path d="M75.4,117.2 C75.2,117.3 75,117.6 74.8,117.7 C74.3,117.8 74,117.5 74,117 C74,116.6 74.2,116.4 74.6,116.4 C75,116.4 75.3,116.6 75.4,117.2 Z" id="Path"></path>
            <path d="M10.4,99.2 C10.2,99.7 10,100 9.5,100 C9.1,100 8.9,99.6 9,99.3 C9,98.9 9.3,98.5 9.8,98.6 C10,98.7 10.2,99 10.4,99.2 Z" id="Path"></path>
            <path d="M34.6,7.4 C34.2,7.4 34,7.2 33.9,6.9 C33.8,6.4 34.1,6.1 34.5,6.1 C34.9,6.1 35.1,6.3 35.1,6.7 C35,6.9 35,7.3 34.6,7.4 Z" id="Path"></path>
            <path d="M35.8,23.1 C35.7,23.6 35.6,23.9 35.2,24 C34.8,24.1 34.6,23.9 34.5,23.5 C34.4,23 34.6,22.6 35.1,22.7 C35.3,22.6 35.6,22.9 35.8,23.1 Z" id="Path"></path>
            <path d="M6.8,34.4 C6.9,34 7,33.6 7.4,33.6 C7.8,33.5 8,33.7 8.1,34.1 C8.2,34.6 8,34.9 7.5,34.9 C7.2,34.9 7,34.5 6.8,34.4 Z" id="Path"></path>
            <path d="M19.3,44 C19.1,44.1 18.9,44.4 18.6,44.4 C18.1,44.4 17.9,44 17.9,43.6 C17.9,43.2 18.2,43 18.5,43 C19.1,43.1 19.4,43.3 19.3,44 Z" id="Path"></path>
            <path d="M23.9,35 C24.3,35.1 24.5,35.3 24.4,35.7 C24.4,36.1 24.1,36.3 23.7,36.2 C23.4,36.2 23.1,35.9 23.2,35.5 C23.3,35.2 23.5,35 23.9,35 Z" id="Path"></path>
        </g>
    </g>
</svg>