<svg width="403px" height="90px" viewBox="0 0 403 90" version="1.1" xmlns="http://www.w3.org/2000/svg" xmlns:xlink="http://www.w3.org/1999/xlink">
    <title>Logos/Mixing Senses</title>
    <g id="Logos/Mixing-Senses" stroke="none" stroke-width="1" fill="none" fill-rule="evenodd">
        <path d="M107.294272,37.6 L113.525078,43.8078611 L105.011433,52.2731261 L113.525078,60.8458867 L107.294272,67 L98.8343409,58.4272395 L90.2938393,67 L84.116747,60.8458867 L92.6572486,52.2731261 L84.116747,43.8078611 L90.2938393,37.6 L98.8343409,46.0652651 L107.294272,37.6 Z M228.468908,36 C230.559641,36 232.315068,36.2788618 233.735188,36.8365854 C234.681935,37.2084011 235.948619,37.9421363 237.535239,39.037791 L237.535239,39.037791 L232.019209,49.2060976 C233.248665,49.7571816 234.146103,50.1854336 234.711521,50.4908537 C235.559649,50.9489837 236.309157,51.4867886 236.960045,52.1042683 C237.610934,52.721748 238.123755,53.4288618 238.498509,54.2256098 C238.873263,55.0223577 239.06064,55.9585366 239.06064,57.0341463 C239.06064,58.3089431 238.823954,59.4542683 238.35058,60.470122 C237.877207,61.4859756 237.196732,62.3623984 236.309157,63.0993902 C235.421581,63.8363821 234.366353,64.404065 233.143471,64.802439 C231.92059,65.200813 230.579365,65.4 229.119796,65.4 C226.871272,65.4 224.829848,64.9418699 222.995526,64.0256098 C221.772644,63.4147696 220.125699,62.4188347 218.05469,61.0378049 L218.05469,61.0378049 L223.742953,50.6972014 C222.536428,49.8842387 221.695569,49.2378138 221.220375,48.7579268 C220.017218,47.5428862 219.415639,45.8597561 219.415639,43.7085366 C219.415639,42.6329268 219.642463,41.6270325 220.096113,40.6908537 C220.549763,39.7546748 221.180927,38.9380081 221.989607,38.2408537 C222.798287,37.5436992 223.754896,36.995935 224.859434,36.597561 C225.963973,36.199187 227.16713,36 228.468908,36 Z M313.148078,36 C315.238811,36 316.994238,36.2788618 318.414358,36.8365854 C319.361105,37.2084011 320.627789,37.9421363 322.214409,39.037791 L322.214409,39.037791 L316.698379,49.2060976 C317.927835,49.7571816 318.825273,50.1854336 319.390691,50.4908537 C320.238819,50.9489837 320.988327,51.4867886 321.639215,52.1042683 C322.290104,52.721748 322.802925,53.4288618 323.177679,54.2256098 C323.552434,55.0223577 323.739811,55.9585366 323.739811,57.0341463 C323.739811,58.3089431 323.503124,59.4542683 323.02975,60.470122 C322.556377,61.4859756 321.875902,62.3623984 320.988327,63.0993902 C320.100751,63.8363821 319.045523,64.404065 317.822641,64.802439 C316.59976,65.200813 315.258535,65.4 313.798966,65.4 C311.550442,65.4 309.509019,64.9418699 307.674696,64.0256098 C306.451814,63.4147696 304.804869,62.4188347 302.73386,61.0378049 L302.73386,61.0378049 L308.422124,50.6972014 C307.215599,49.8842387 306.374739,49.2378138 305.899545,48.7579268 C304.696388,47.5428862 304.094809,45.8597561 304.094809,43.7085366 C304.094809,42.6329268 304.321634,41.6270325 304.775283,40.6908537 C305.228933,39.7546748 305.860098,38.9380081 306.668777,38.2408537 C307.477457,37.5436992 308.434066,36.995935 309.538604,36.597561 C310.643143,36.199187 311.8463,36 313.148078,36 Z M367.408267,36 C369.499,36 371.254427,36.2788618 372.674548,36.8365854 C373.621295,37.2084011 374.887978,37.9421363 376.474598,39.037791 L376.474598,39.037791 L370.958569,49.2060976 C372.188025,49.7571816 373.085462,50.1854336 373.650881,50.4908537 C374.499008,50.9489837 375.248516,51.4867886 375.899405,52.1042683 C376.550294,52.721748 377.063115,53.4288618 377.437869,54.2256098 C377.812623,55.0223577 378,55.9585366 378,57.0341463 C378,58.3089431 377.763313,59.4542683 377.28994,60.470122 C376.816566,61.4859756 376.136092,62.3623984 375.248516,63.0993902 C374.360941,63.8363821 373.305712,64.404065 372.082831,64.802439 C370.859949,65.200813 369.518724,65.4 368.059156,65.4 C365.810631,65.4 363.769208,64.9418699 361.934886,64.0256098 C360.712004,63.4147696 359.065059,62.4188347 356.994049,61.0378049 L356.994049,61.0378049 L362.682313,50.6972014 C361.475788,49.8842387 360.634929,49.2378138 360.159735,48.7579268 C358.956577,47.5428862 358.354998,45.8597561 358.354998,43.7085366 C358.354998,42.6329268 358.581823,41.6270325 359.035473,40.6908537 C359.489122,39.7546748 360.120287,38.9380081 360.928967,38.2408537 C361.737647,37.5436992 362.694256,36.995935 363.798794,36.597561 C364.903332,36.199187 366.10649,36 367.408267,36 Z M52.3077359,39.7 L52.3077359,64.9 L25,64.9 L25,39.7 L38.653868,45.3762411 L52.3077359,39.7 Z M73.3682475,39.7 L73.3682475,64.9 L64.9658672,64.9 L64.9658672,39.7 L73.3682475,39.7 Z M132.484994,39.7 L132.484994,64.9 L124.082614,64.9 L124.082614,39.7 L132.484994,39.7 Z M186.74582,39.7 C190.640289,39.7 194.122202,41.4658567 196.434123,44.2403473 L186.74582,52.3 L199.349391,52.3 C199.349391,59.2587878 193.70658,64.9 186.74582,64.9 C179.785061,64.9 174.14225,59.2587878 174.14225,52.3 C174.14225,45.3412122 179.785061,39.7 186.74582,39.7 Z M166.039955,40 L166.039955,64.9 L141.032871,64.9 L141.032871,40 L158.402342,53.6407913 L158.402342,40 L166.039955,40 Z M265.002444,38.1 L265.002444,44.4547331 L254.815075,54.76 L254.815075,56.999 L264.662711,56.9994886 L264.662711,63.3 L247.123735,63.3 L247.123075,63.299 L246.413171,63.3 L246.413075,63.26 L246.373075,63.3 L246.373075,38.1 L265.002444,38.1 Z M349.681614,38.1 L349.681614,44.4547331 L339.494245,54.76 L339.494245,56.999 L349.341881,56.9994886 L349.341881,63.3 L331.802905,63.3 L331.802245,63.299 L331.092341,63.3 L331.092245,63.26 L331.052245,63.3 L331.052245,38.1 L349.681614,38.1 Z M297.077076,38 L297.077076,62.9 L272.069991,62.9 L272.069991,38 L289.439463,51.6407913 L289.439463,38 L297.077076,38 Z M68.2122414,25 C70.5324947,25 72.4134316,26.8804041 72.4134316,29.2 C72.4134316,31.5195959 70.5324947,33.4 68.2122414,33.4 C65.8919882,33.4 64.0110513,31.5195959 64.0110513,29.2 C64.0110513,26.8804041 65.8919882,25 68.2122414,25 Z M127.328988,25 C129.649242,25 131.530179,26.8804041 131.530179,29.2 C131.530179,31.5195959 129.649242,33.4 127.328988,33.4 C125.008735,33.4 123.127798,31.5195959 123.127798,29.2 C123.127798,26.8804041 125.008735,25 127.328988,25 Z" id="Loog/mixing-senses" fill="#7873A2" fill-rule="nonzero"></path>
    </g>
</svg>
