<?xml version="1.0" encoding="UTF-8"?>
<svg width="372px" height="153px" viewBox="0 0 372 153" version="1.1" xmlns="http://www.w3.org/2000/svg" xmlns:xlink="http://www.w3.org/1999/xlink">
    <title>Logos/vi.son</title>
    <g id="Logos/vi.son" stroke="none" stroke-width="1" fill="none" fill-rule="evenodd">
        <path d="M235.577996,50.0008847 C250.221567,50.0008847 262.092528,61.8651408 262.092528,76.5004424 C262.092528,91.1357439 250.221567,103 235.577996,103 C220.934424,103 209.063464,91.1357439 209.063464,76.5004424 C209.063464,61.8651408 220.934424,50.0008847 235.577996,50.0008847 Z M55.0621384,51.5518701 L55.1001045,51.6182732 L90.7312315,69.8917585 L101.738219,51.5518701 L109.641482,51.5518701 L109.641482,101.167592 L103.785221,101.167592 L103.785221,56.9289357 L77.9208574,102.927273 L50,51.5518701 L55.0621384,51.5518701 Z M181.000233,50.0008847 C184.536348,50.0008847 187.507718,50.5015426 189.914343,51.5028584 C191.515244,52.1679428 193.657162,53.4807205 196.340095,55.4411913 L196.340095,55.4411913 L184.317516,73.0696184 C186.396157,74.0561779 190.611969,75.3905629 191.56112,75.9375975 C192.95026,76.7257102 194.227208,77.6967057 195.357724,78.8245489 C196.449914,79.9194295 197.33145,81.2056167 197.958397,82.6190086 C198.591165,84.045093 198.907548,85.7204523 198.907548,87.6450866 C198.907548,89.9270325 198.507323,91.9770947 197.706872,93.7952733 C196.91624,95.5972054 195.737661,97.2026654 194.255127,98.4972412 C192.68848,99.8538003 190.870063,100.889009 188.903497,101.543876 C186.711639,102.277158 184.412513,102.638933 182.101249,102.61423 C178.299372,102.613176 174.848153,101.793151 171.747594,100.154155 C170.120327,99.2940777 168.050123,98.0071235 165.536982,96.2932926 L165.536982,96.2932926 L176.656286,77.9628904 C174.617193,76.5083475 169.550309,73.6909612 168.746695,72.8324647 C166.712348,70.6569745 165.695174,67.6445951 165.695174,63.7953266 C165.682045,61.9333494 166.07504,60.0908756 166.846811,58.3961267 C167.604609,56.7322482 168.693469,55.2400131 170.047031,54.0103638 C171.463943,52.7326895 173.110217,51.7348607 174.898775,51.0696575 C176.849661,50.3419219 178.917999,49.9796177 181.000233,50.0008847 Z M315.143739,51.4475225 L321,51.4570086 L320.924068,101.167592 L315.833455,101.167592 L279.022217,60.9890075 L279.022217,101.167592 L273.164374,101.167592 L273.246633,51.5202496 L278.254987,51.4696568 L299.590318,74.8182319 L315.143739,51.4475225 Z M138.502543,72 C140.989229,72 143.005086,74.0147186 143.005086,76.5 C143.005086,78.9852814 140.989229,81 138.502543,81 C136.015857,81 134,78.9852814 134,76.5 C134,74.0147186 136.015857,72 138.502543,72 Z" id="Logo/vi.son" fill="#323045" fill-rule="nonzero"></path>
    </g>
</svg>