<?xml version="1.0" encoding="UTF-8"?>
<svg width="372px" height="223px" viewBox="0 0 372 223" version="1.1" xmlns="http://www.w3.org/2000/svg" xmlns:xlink="http://www.w3.org/1999/xlink">
    <title>Logos/vi.son - mixing senses</title>
    <defs>
        <path d="M131.582677,140.7 L135.942477,144.98638 L129.985337,150.831444 L135.942477,156.750731 L131.582677,161 L125.663122,155.080713 L119.687191,161 L115.364976,156.750731 L121.340908,150.831444 L115.364976,144.98638 L119.687191,140.7 L125.663122,146.545064 L131.582677,140.7 Z M216.370595,139.595238 C217.833516,139.595238 219.061818,139.787786 220.0555,140.17288 C220.717955,140.42961 221.604274,140.936237 222.714459,141.69276 L222.714459,141.69276 L218.854801,148.713734 C219.715072,149.094244 220.343024,149.389942 220.738656,149.600828 C221.332105,149.917155 221.856549,150.288497 222.311986,150.714852 C222.767424,151.141207 223.126254,151.629452 223.388475,152.179588 C223.650697,152.729723 223.781808,153.376132 223.781808,154.118815 C223.781808,154.999032 223.616194,155.789852 223.284967,156.491275 C222.953739,157.192697 222.4776,157.797846 221.856549,158.306722 C221.235497,158.815597 220.497136,159.207569 219.641466,159.482636 C218.785795,159.757704 217.847317,159.895238 216.826033,159.895238 C215.252703,159.895238 213.824285,159.57891 212.540779,158.946254 C211.685108,158.524484 210.532713,157.836814 209.083593,156.883246 L209.083593,156.883246 L213.063766,149.743306 C212.219541,149.181974 211.631177,148.735633 211.298676,148.404283 C210.456807,147.565326 210.035872,146.403165 210.035872,144.917799 C210.035872,144.175116 210.194585,143.48057 210.512011,142.834161 C210.829437,142.187752 211.271074,141.623863 211.836921,141.142494 C212.402767,140.661126 213.072123,140.282907 213.844987,140.00784 C214.61785,139.732772 215.45972,139.595238 216.370595,139.595238 Z M275.622026,139.595238 C277.084947,139.595238 278.313248,139.787786 279.306931,140.17288 C279.969385,140.42961 280.855705,140.936237 281.96589,141.69276 L281.96589,141.69276 L278.106231,148.713734 C278.966502,149.094244 279.594454,149.389942 279.990087,149.600828 C280.583536,149.917155 281.107979,150.288497 281.563417,150.714852 C282.018855,151.141207 282.377684,151.629452 282.639906,152.179588 C282.902128,152.729723 283.033239,153.376132 283.033239,154.118815 C283.033239,154.999032 282.867625,155.789852 282.536397,156.491275 C282.20517,157.192697 281.729031,157.797846 281.107979,158.306722 C280.486928,158.815597 279.748567,159.207569 278.892896,159.482636 C278.037226,159.757704 277.098748,159.895238 276.077464,159.895238 C274.504134,159.895238 273.075716,159.57891 271.792209,158.946254 C270.936539,158.524484 269.784144,157.836814 268.335024,156.883246 L268.335024,156.883246 L272.315197,149.743306 C271.470971,149.181974 270.882608,148.735633 270.550107,148.404283 C269.708237,147.565326 269.287302,146.403165 269.287302,144.917799 C269.287302,144.175116 269.446016,143.48057 269.763442,142.834161 C270.080868,142.187752 270.522505,141.623863 271.088351,141.142494 C271.654198,140.661126 272.323553,140.282907 273.096417,140.00784 C273.869281,139.732772 274.711151,139.595238 275.622026,139.595238 Z M313.588787,139.595238 C315.051708,139.595238 316.28001,139.787786 317.273692,140.17288 C317.936147,140.42961 318.822466,140.936237 319.932651,141.69276 L319.932651,141.69276 L316.072993,148.713734 C316.933264,149.094244 317.561216,149.389942 317.956848,149.600828 C318.550298,149.917155 319.074741,150.288497 319.530179,150.714852 C319.985616,151.141207 320.344446,151.629452 320.606667,152.179588 C320.868889,152.729723 321,153.376132 321,154.118815 C321,154.999032 320.834386,155.789852 320.503159,156.491275 C320.171932,157.192697 319.695792,157.797846 319.074741,158.306722 C318.45369,158.815597 317.715329,159.207569 316.859658,159.482636 C316.003987,159.757704 315.06551,159.895238 314.044225,159.895238 C312.470895,159.895238 311.042477,159.57891 309.758971,158.946254 C308.9033,158.524484 307.750905,157.836814 306.301785,156.883246 L306.301785,156.883246 L310.281958,149.743306 C309.437733,149.181974 308.849369,148.735633 308.516868,148.404283 C307.674999,147.565326 307.254064,146.403165 307.254064,144.917799 C307.254064,144.175116 307.412777,143.48057 307.730203,142.834161 C308.04763,142.187752 308.489266,141.623863 309.055113,141.142494 C309.62096,140.661126 310.290315,140.282907 311.063179,140.00784 C311.836043,139.732772 312.677912,139.595238 313.588787,139.595238 Z M93.1076792,142.15 L93.1076792,159.55 L74,159.55 L74,142.15 L83.5538396,146.069309 L93.1076792,142.15 Z M107.844071,142.15 L107.844071,159.55 L101.964785,159.55 L101.964785,142.15 L107.844071,142.15 Z M149.209047,142.15 L149.209047,159.55 L143.329761,159.55 L143.329761,142.15 L149.209047,142.15 Z M187.176254,142.15 C189.901291,142.15 192.337653,143.369293 193.955343,145.285027 L187.176254,150.85 L195.995183,150.85 C195.995183,155.654877 192.046814,159.55 187.176254,159.55 C182.305694,159.55 178.357325,155.654877 178.357325,150.85 C178.357325,146.045123 182.305694,142.15 187.176254,142.15 Z M172.688014,142.357143 L172.688014,159.55 L155.190139,159.55 L155.190139,142.357143 L167.343848,151.775784 L167.343848,142.357143 L172.688014,142.357143 Z M241.933722,141.045238 L241.933722,145.43303 L234.805441,152.548238 L234.805441,154.094238 L241.696005,154.094885 L241.696005,158.445238 L228.926496,158.445238 L228.926441,158.417238 L228.898441,158.445238 L228.898441,141.045238 L241.933722,141.045238 Z M301.185152,141.045238 L301.185152,145.43303 L294.056871,152.548238 L294.056871,154.094238 L300.947435,154.094885 L300.947435,158.445238 L288.177927,158.445238 L288.177871,158.417238 L288.149871,158.445238 L288.149871,141.045238 L301.185152,141.045238 Z M264.376877,140.97619 L264.376877,158.169048 L246.879003,158.169048 L246.879003,140.97619 L259.032712,150.394832 L259.032712,140.97619 L264.376877,140.97619 Z M104.236328,132 C105.859848,132 107.175971,133.298374 107.175971,134.9 C107.175971,136.501626 105.859848,137.8 104.236328,137.8 C102.612808,137.8 101.296685,136.501626 101.296685,134.9 C101.296685,133.298374 102.612808,132 104.236328,132 Z M145.601303,132 C147.224823,132 148.540946,133.298374 148.540946,134.9 C148.540946,136.501626 147.224823,137.8 145.601303,137.8 C143.977784,137.8 142.661661,136.501626 142.661661,134.9 C142.661661,133.298374 143.977784,132 145.601303,132 Z" id="path-1"></path>
    </defs>
    <g id="Logos/vi.son---mixing-senses" stroke="none" stroke-width="1" fill="none" fill-rule="evenodd">
        <path d="M235.577996,62.0008847 C250.221567,62.0008847 262.092528,73.8651408 262.092528,88.5004424 C262.092528,103.135744 250.221567,115 235.577996,115 C220.934424,115 209.063464,103.135744 209.063464,88.5004424 C209.063464,73.8651408 220.934424,62.0008847 235.577996,62.0008847 Z M55.0621384,63.5518701 L55.1001045,63.6182732 L90.7312315,81.8917585 L101.738219,63.5518701 L109.641482,63.5518701 L109.641482,113.167592 L103.785221,113.167592 L103.785221,68.9289357 L77.9208574,114.927273 L50,63.5518701 L55.0621384,63.5518701 Z M181.000233,62.0008847 C184.536348,62.0008847 187.507718,62.5015426 189.914343,63.5028584 C191.515244,64.1679428 193.657162,65.4807205 196.340095,67.4411913 L196.340095,67.4411913 L184.317516,85.0696184 C186.396157,86.0561779 190.611969,87.3905629 191.56112,87.9375975 C192.95026,88.7257102 194.227208,89.6967057 195.357724,90.8245489 C196.449914,91.9194295 197.33145,93.2056167 197.958397,94.6190086 C198.591165,96.045093 198.907548,97.7204523 198.907548,99.6450866 C198.907548,101.927032 198.507323,103.977095 197.706872,105.795273 C196.91624,107.597205 195.737661,109.202665 194.255127,110.497241 C192.68848,111.8538 190.870063,112.889009 188.903497,113.543876 C186.711639,114.277158 184.412513,114.638933 182.101249,114.61423 C178.299372,114.613176 174.848153,113.793151 171.747594,112.154155 C170.120327,111.294078 168.050123,110.007124 165.536982,108.293293 L165.536982,108.293293 L176.656286,89.9628904 C174.617193,88.5083475 169.550309,85.6909612 168.746695,84.8324647 C166.712348,82.6569745 165.695174,79.6445951 165.695174,75.7953266 C165.682045,73.9333494 166.07504,72.0908756 166.846811,70.3961267 C167.604609,68.7322482 168.693469,67.2400131 170.047031,66.0103638 C171.463943,64.7326895 173.110217,63.7348607 174.898775,63.0696575 C176.849661,62.3419219 178.917999,61.9796177 181.000233,62.0008847 Z M315.143739,63.4475225 L321,63.4570086 L320.924068,113.167592 L315.833455,113.167592 L279.022217,72.9890075 L279.022217,113.167592 L273.164374,113.167592 L273.246633,63.5202496 L278.254987,63.4696568 L299.590318,86.8182319 L315.143739,63.4475225 Z M139.263192,85.0715437 C141.748473,85.0715437 143.763192,87.0851245 143.763192,89.5690023 C143.763192,92.05288 141.748473,94.0664608 139.263192,94.0664608 C136.77791,94.0664608 134.763192,92.05288 134.763192,89.5690023 C134.763192,87.0851245 136.77791,85.0715437 139.263192,85.0715437 Z" id="Logo/vi.son" fill="#FFFFFF" fill-rule="nonzero"></path>
        <mask id="mask-2" fill="white">
            <use xlink:href="#path-1"></use>
        </mask>
        <use id="Loog/mixing-senses" fill="#FFFFFF" fill-rule="nonzero" xlink:href="#path-1"></use>
    </g>
</svg>
